<?xml version="1.0" encoding="iso-8859-1"?>
<!-- Uploaded to: SVG Repo, www.svgrepo.com, Generator: SVG Repo Mixer Tools -->
<svg fill="#000000" height="800px" width="800px" version="1.1" id="Layer_1" xmlns="http://www.w3.org/2000/svg" xmlns:xlink="http://www.w3.org/1999/xlink" 
	 viewBox="0 0 512 512" xml:space="preserve">
<g>
	<g>
		<path d="M442.6,392.533h-15.933V358.4c0-94.117-76.55-170.667-170.667-170.667c-18.814,0-34.133-15.32-34.133-34.133v-34.133
			h15.93c10.055,0,18.202-8.147,18.202-18.202V69.402c0-10.055-8.147-18.202-18.202-18.202h-15.93V18.202
			C221.867,8.147,213.72,0,203.665,0h-100.13C93.48,0,85.333,8.147,85.333,18.202V51.2H69.4c-10.048,0-18.202,8.149-18.202,18.202
			v31.863c0,10.053,8.154,18.202,18.202,18.202h15.933V153.6c0,94.117,76.55,170.667,170.667,170.667
			c18.814,0,34.133,15.32,34.133,34.133v34.133h-15.93c-10.055,0-18.202,8.147-18.202,18.202v31.864
			c0,10.055,8.147,18.202,18.202,18.202h15.93v32.998c0,10.055,8.147,18.202,18.202,18.202h100.13
			c10.055,0,18.202-8.147,18.202-18.202V460.8H442.6c10.048,0,18.202-8.149,18.202-18.202v-31.864
			C460.802,400.682,452.648,392.533,442.6,392.533z M102.4,18.202c0-0.629,0.506-1.135,1.135-1.135h100.13
			c0.629,0,1.135,0.506,1.135,1.135V51.2H102.4V18.202z M68.265,101.265V69.402c0-0.625,0.51-1.135,1.135-1.135h24.467h119.467
			h24.463c0.629,0,1.135,0.506,1.135,1.135v31.863c0,0.629-0.506,1.135-1.135,1.135h-24.463H93.867H69.4
			C68.775,102.4,68.265,101.89,68.265,101.265z M256,307.2c-84.691,0-153.6-68.909-153.6-153.6v-34.133h102.4V153.6
			c0,28.239,22.961,51.2,51.2,51.2c84.691,0,153.6,68.909,153.6,153.6v34.133H307.2V358.4C307.2,330.161,284.239,307.2,256,307.2z
			 M409.6,493.798c0,0.629-0.506,1.135-1.135,1.135h-100.13c-0.629,0-1.135-0.506-1.135-1.135V460.8h102.4V493.798z
			 M443.735,442.598c0,0.625-0.51,1.135-1.135,1.135h-24.467H298.667h-24.463c-0.629,0-1.135-0.506-1.135-1.135v-31.864
			c0-0.629,0.506-1.135,1.135-1.135h24.463h119.467H442.6c0.625,0,1.135,0.51,1.135,1.135V442.598z"/>
	</g>
</g>
</svg>