<?xml version="1.0" encoding="iso-8859-1"?>
<!-- Uploaded to: SVG Repo, www.svgrepo.com, Generator: SVG Repo Mixer Tools -->
<svg fill="#000000" height="800px" width="800px" version="1.1" id="Layer_1" xmlns="http://www.w3.org/2000/svg" xmlns:xlink="http://www.w3.org/1999/xlink" 
	 viewBox="0 0 512.002 512.002" xml:space="preserve">
<g>
	<g>
		<g>
			<path d="M469.158,119.469c9.168,0,16.597-7.44,16.597-16.606V67.8c0-9.167-7.43-16.597-16.597-16.597h-9.005V16.597
				C460.153,7.43,452.723,0,443.555,0h-86.263c-9.166,0-16.606,7.429-16.606,16.597v34.605h-9c-9.167,0-16.597,7.43-16.597,16.597
				v35.063c0,9.166,7.429,16.606,16.597,16.606h7.373c-8.044,43.945-46.453,76.797-92.24,76.797H195.62v-59.733h15.935
				c10.048,0,18.202-8.149,18.202-18.202V86.468c0-10.053-8.154-18.202-18.202-18.202h-15.933V18.202
				C195.622,8.147,187.475,0,177.42,0H77.29C67.235,0,59.088,8.147,59.088,18.202v50.065h-15.93
				c-10.055,0-18.202,8.147-18.202,18.202v31.863c0,10.055,8.147,18.202,18.202,18.202h15.928v238.933H43.158
				c-10.055,0-18.202,8.147-18.202,18.202v31.863c0,10.055,8.147,18.202,18.202,18.202H59.09v50.065
				c0,10.055,8.147,18.202,18.202,18.202h100.13c10.048,0,18.202-8.149,18.202-18.202v-50.065h15.932
				c10.048,0,18.202-8.149,18.202-18.202v-31.863c0-10.053-8.154-18.202-18.202-18.202H195.62v-59.733h51.199
				c111.833,0,203.899-86.039,212.606-196.264H469.158z M357.753,17.067h85.333V51.2h-85.333V17.067z M332.155,68.269h136.533
				v34.133h-8.393l0-0.003H340.935l0,0.003h-8.78V68.269z M76.155,18.202c0-0.629,0.506-1.135,1.135-1.135h100.13
				c0.629,0,1.135,0.506,1.135,1.135v50.065h-102.4V18.202z M42.024,118.332V86.468c0-0.629,0.506-1.135,1.135-1.135h24.463h119.467
				h24.467c0.625,0,1.135,0.51,1.135,1.135v31.863c0,0.625-0.51,1.135-1.135,1.135h-24.469H67.62H43.158
				C42.529,119.467,42.024,118.961,42.024,118.332z M178.557,493.798c0,0.625-0.51,1.135-1.135,1.135H77.292
				c-0.629,0-1.135-0.506-1.135-1.135v-50.065h102.4V493.798z M212.69,393.668v31.863c0,0.625-0.51,1.135-1.135,1.135H187.09H67.624
				H43.158c-0.629,0-1.135-0.506-1.135-1.135v-31.863c0-0.629,0.506-1.135,1.135-1.135H67.62h119.467h24.469
				C212.18,392.533,212.69,393.043,212.69,393.668z M178.553,375.467h-102.4V136.533h102.4v59.733h-0.001v119.467h0.001V375.467z
				 M349.222,269.878V256c0-4.713-3.82-8.533-8.533-8.533h-8.533V230.4c0-4.713-3.821-8.533-8.533-8.533h-17.067
				c-4.713,0-8.533,3.82-8.533,8.533s3.82,8.533,8.533,8.533h8.533V256c0,4.713,3.82,8.533,8.533,8.533h8.533v14.672
				c-25.82,12.475-54.775,19.461-85.336,19.461H195.62v-85.333h51.199c55.183,0,101.311-40.377,109.552-93.864h85.945
				C436.832,183.342,400.892,238.239,349.222,269.878z"/>
			<path d="M356.313,319.518c-3.38-5.05-10.805-5.049-14.184,0.001l-25.054,37.444c-15.887,25.487-15.9,48.401,1.058,65.359
				c17.174,17.174,45.011,17.174,62.184,0c17.004-17.014,16.989-43.305,0.884-65.609L356.313,319.518z M368.248,410.255
				c-10.507,10.507-27.538,10.507-38.046-0.002c-10.692-10.692-10.684-24.947,1.208-44.032l17.812-26.615l17.971,26.849
				C378.872,382.638,378.881,399.616,368.248,410.255z"/>
			<path d="M475.069,433.513l-24.889-37.195c-3.38-5.05-10.805-5.049-14.184,0.001l-25.054,37.444
				c-15.886,25.487-15.9,48.401,1.058,65.359c17.174,17.174,45.011,17.174,62.184,0
				C491.189,482.107,491.174,455.816,475.069,433.513z M462.115,487.055c-10.507,10.507-27.538,10.507-38.047-0.002
				c-10.692-10.692-10.684-24.947,1.208-44.032l17.812-26.615l17.971,26.849C472.738,459.438,472.748,476.416,462.115,487.055z"/>
		</g>
	</g>
</g>
</svg>