<svg id="visual" viewBox="0 0 141.31 200" width="141.31" height="200" xmlns="http://www.w3.org/2000/svg" xmlns:xlink="http://www.w3.org/1999/xlink" version="1.1"><rect x="0" y="0" width="141.31" height="200" fill="#5ABCD8"></rect><path d="M0 123L3.3 127.8C6.7 132.7 13.3 142.3 20 144.5C26.7 146.7 33.3 141.3 40.2 138C47 134.7 54 133.3 60.8 135.5C67.7 137.7 74.3 143.3 81 143.2C87.7 143 94.3 137 101 134.5C107.7 132 114.3 133 121 133.7C127.7 134.3 134.3 134.7 137.7 134.8L141 135L141 201L137.7 201C134.3 201 127.7 201 121 201C114.3 201 107.7 201 101 201C94.3 201 87.7 201 81 201C74.3 201 67.7 201 60.8 201C54 201 47 201 40.2 201C33.3 201 26.7 201 20 201C13.3 201 6.7 201 3.3 201L0 201Z" fill="#74CCF4" stroke-linecap="round" stroke-linejoin="miter"></path></svg>