<svg id="visual" viewBox="0 0 141.31 200" width="141.31" height="200" xmlns="http://www.w3.org/2000/svg" xmlns:xlink="http://www.w3.org/1999/xlink" version="1.1"><rect x="0" y="0" width="141.31" height="200" fill="#5ABCD8"></rect><path d="M0 191L1.3 191.2C2.7 191.3 5.3 191.7 8.2 190.8C11 190 14 188 16.8 187.7C19.7 187.3 22.3 188.7 25 189.5C27.7 190.3 30.3 190.7 33.2 191C36 191.3 39 191.7 41.8 191.7C44.7 191.7 47.3 191.3 50 191C52.7 190.7 55.3 190.3 58 190.2C60.7 190 63.3 190 66.2 189.5C69 189 72 188 74.8 188.3C77.7 188.7 80.3 190.3 83 190.3C85.7 190.3 88.3 188.7 91.2 187.7C94 186.7 97 186.3 99.8 187.2C102.7 188 105.3 190 108 190.3C110.7 190.7 113.3 189.3 116.2 189C119 188.7 122 189.3 124.8 189.5C127.7 189.7 130.3 189.3 133 189.8C135.7 190.3 138.3 191.7 139.7 192.3L141 193L141 201L139.7 201C138.3 201 135.7 201 133 201C130.3 201 127.7 201 124.8 201C122 201 119 201 116.2 201C113.3 201 110.7 201 108 201C105.3 201 102.7 201 99.8 201C97 201 94 201 91.2 201C88.3 201 85.7 201 83 201C80.3 201 77.7 201 74.8 201C72 201 69 201 66.2 201C63.3 201 60.7 201 58 201C55.3 201 52.7 201 50 201C47.3 201 44.7 201 41.8 201C39 201 36 201 33.2 201C30.3 201 27.7 201 25 201C22.3 201 19.7 201 16.8 201C14 201 11 201 8.2 201C5.3 201 2.7 201 1.3 201L0 201Z" fill="#74CCF4" stroke-linecap="round" stroke-linejoin="miter"></path></svg>