<svg id="visual" viewBox="0 0 141.31 200" width="141.31" height="200" xmlns="http://www.w3.org/2000/svg" xmlns:xlink="http://www.w3.org/1999/xlink" version="1.1"><rect x="0" y="0" width="141.31" height="200" fill="#5ABCD8"></rect><path d="M0 73L3.3 81C6.7 89 13.3 105 20 108.5C26.7 112 33.3 103 40.2 97.5C47 92 54 90 60.8 93.7C67.7 97.3 74.3 106.7 81 106.3C87.7 106 94.3 96 101 91.8C107.7 87.7 114.3 89.3 121 90.5C127.7 91.7 134.3 92.3 137.7 92.7L141 93L141 201L137.7 201C134.3 201 127.7 201 121 201C114.3 201 107.7 201 101 201C94.3 201 87.7 201 81 201C74.3 201 67.7 201 60.8 201C54 201 47 201 40.2 201C33.3 201 26.7 201 20 201C13.3 201 6.7 201 3.3 201L0 201Z" fill="#74CCF4" stroke-linecap="round" stroke-linejoin="miter"></path></svg>